HIERARCHY
ROOT Hips
{
	OFFSET 0.00000 0.00000 0.00000
	CHANNELS 6 Xposition Yposition Zposition Zrotation Yrotation Xrotation 
	JOINT LHipJoint
	{
		OFFSET 0 0 0
		CHANNELS 3 Zrotation Yrotation Xrotation
		JOINT LeftUpLeg
		{
			OFFSET 1.61328 -1.70571 0.84375
			CHANNELS 3 Zrotation Yrotation Xrotation
			JOINT LeftLeg
			{
				OFFSET 2.32400 -6.38513 0.00000
				CHANNELS 3 Zrotation Yrotation Xrotation
				JOINT LeftFoot
				{
					OFFSET 2.58843 -7.11166 0.00000
					CHANNELS 3 Zrotation Yrotation Xrotation
					JOINT LeftToeBase
					{
						OFFSET 0.17200 -0.47257 2.47970
						CHANNELS 3 Zrotation Yrotation Xrotation
						End Site
						{
							OFFSET 0.00000 -0.00000 1.26912
						}
					}
				}
			}
		}
	}
	JOINT RHipJoint
	{
		OFFSET 0 0 0
		CHANNELS 3 Zrotation Yrotation Xrotation
		JOINT RightUpLeg
		{
			OFFSET -1.49930 -1.70570 0.84375
			CHANNELS 3 Zrotation Yrotation Xrotation
			JOINT RightLeg
			{
				OFFSET -2.30458 -6.33178 0.00000
				CHANNELS 3 Zrotation Yrotation Xrotation
				JOINT RightFoot
				{
					OFFSET -2.62261 -7.20556 0.00000
					CHANNELS 3 Zrotation Yrotation Xrotation
					JOINT RightToeBase
					{
						OFFSET -0.18709 -0.51403 2.51340
						CHANNELS 3 Zrotation Yrotation Xrotation
						End Site
						{
							OFFSET -0.00000 -0.00000 1.28858
						}
					}
				}
			}
		}
	}
	JOINT LowerBack
	{
		OFFSET 0 0 0
		CHANNELS 3 Zrotation Yrotation Xrotation
		JOINT Spine
		{
			OFFSET -0.03798 2.19274 -0.19881
			CHANNELS 3 Zrotation Yrotation Xrotation
			JOINT Spine1
			{
				OFFSET -0.00024 2.19460 0.05248
				CHANNELS 3 Zrotation Yrotation Xrotation
				JOINT Neck
				{
					OFFSET 0 0 0
					CHANNELS 3 Zrotation Yrotation Xrotation
					JOINT Neck1
					{
						OFFSET -0.00746 1.82323 0.17286
						CHANNELS 3 Zrotation Yrotation Xrotation
						JOINT Head
						{
							OFFSET 0.11826 1.82121 -0.27841
							CHANNELS 3 Zrotation Yrotation Xrotation
							End Site
							{
								OFFSET 0.03496 1.85543 -0.11495
							}
						}
					}
				}
				JOINT LeftShoulder
				{
					OFFSET 0 0 0
					CHANNELS 3 Zrotation Yrotation Xrotation
					JOINT LeftArm
					{
						OFFSET 3.71926 0.78840 0.25473
						CHANNELS 3 Zrotation Yrotation Xrotation
						JOINT LeftForeArm
						{
							OFFSET 5.37587 -0.00000 0.00000
							CHANNELS 3 Zrotation Yrotation Xrotation
							JOINT LeftHand
							{
								OFFSET 3.35977 -0.00000 0.00000
								CHANNELS 3 Zrotation Yrotation Xrotation
								JOINT LeftFingerBase
								{
									OFFSET 0 0 0
									CHANNELS 3 Zrotation Yrotation Xrotation
									JOINT LeftHandIndex1
									{
										OFFSET 0.56186 -0.00000 0.00000
										CHANNELS 3 Zrotation Yrotation Xrotation
										End Site
										{
											OFFSET 0.45299 -0.00000 0.00000
										}
									}
								}
								JOINT LThumb
								{
									OFFSET 0 0 0
									CHANNELS 3 Zrotation Yrotation Xrotation
									End Site
									{
										OFFSET 0.45990 -0.00000 0.45990
									}
								}
							}
						}
					}
				}
				JOINT RightShoulder
				{
					OFFSET 0 0 0
					CHANNELS 3 Zrotation Yrotation Xrotation
					JOINT RightArm
					{
						OFFSET -3.65136 0.56074 0.01624
						CHANNELS 3 Zrotation Yrotation Xrotation
						JOINT RightForeArm
						{
							OFFSET -5.22819 -0.00000 0.00000
							CHANNELS 3 Zrotation Yrotation Xrotation
							JOINT RightHand
							{
								OFFSET -3.40764 -0.00000 0.00000
								CHANNELS 3 Zrotation Yrotation Xrotation
								JOINT RightFingerBase
								{
									OFFSET 0 0 0
									CHANNELS 3 Zrotation Yrotation Xrotation
									JOINT RightHandIndex1
									{
										OFFSET -0.58325 -0.00000 0.00000
										CHANNELS 3 Zrotation Yrotation Xrotation
										End Site
										{
											OFFSET -0.47024 -0.00000 0.00000
										}
									}
								}
								JOINT RThumb
								{
									OFFSET 0 0 0
									CHANNELS 3 Zrotation Yrotation Xrotation
									End Site
									{
										OFFSET -0.47742 -0.00000 0.47742
									}
								}
							}
						}
					}
				}
			}
		}
	}
}
MOTION
Frames: 14
Frame Time: .0083333
49.8887 16.675 -7.2072 0 0 0 0 0 0 -21 0 0 0 0 0 0 0 0 0 0 0 0 0 0 21 0 0 0 0 0 0 0 0 0 0 0 0 0 0 0 0 0 0 0 0 0 0 -16 0 0 21 0 0 11 0 0 0 -8 0 0 0 0 0 0 0 0 0 0 0 0 0 0 0 0 0 0 0 0 8 0 0 0 0 0 0 0 0 0 0 0 0 0 0 0 0 0
49.8887 16.6750 -7.2072 -20.9934 -85.8929 19.0103 0.0000 0.0000 0.0000 -18.7000 1.3934 -4.4611 1.6058 7.9917 22.6888 0.8541 4.7961 -19.8348 0.0010 -0.2069 -0.5684 0.0000 0.0000 0.0000 21.8268 2.3038 -8.0745 -3.1467 -10.9289 32.0405 -1.9775 -1.2499 -27.0691 -0.9556 -6.2250 17.4386 -0.3973 0.3410 -0.2031 0.8476 0.3723 4.2678 1.1104 0.1259 4.5022 -3.8962 -3.9513 -11.1777 7.5560 -5.4554 6.6208 2.5727 -2.4039 4.1206 0.0000 0.0000 0.0000 -89.1804 -0.8804 20.3190 14.7492 -23.7956 -3.1241 -0.0000 0.0000 -8.5110 17.9641 15.7914 5.0424 -7.1250 0.0000 -0.0000 -9.1979 46.3294 -0.3043 0.0000 0.0000 0.0000 88.7408 0.2532 17.6089 -14.3847 23.2819 -2.9785 0.0000 -0.0000 -1.3624 -20.0794 3.8604 -1.4098 7.1250 -0.0000 -0.0000 4.9540 -25.8664 2.3045
49.8877 16.6751 -7.2068 -20.7451 -85.9001 18.7657 0.0000 0.0000 0.0000 -18.7269 1.3834 -4.4478 1.6031 7.9853 22.6694 0.8532 4.8316 -19.8485 0.0013 -0.2315 -0.6361 0.0000 0.0000 0.0000 21.7995 2.2930 -8.0806 -3.1483 -10.9314 32.0487 -1.9925 -1.1673 -27.1395 -0.9400 -6.1753 17.2939 -0.4115 0.3421 -0.2045 0.8406 0.3749 4.2538 1.1110 0.1272 4.4882 -3.8939 -3.9456 -11.1401 7.5618 -5.4491 6.6134 2.5752 -2.4014 4.1119 -0.0000 0.0000 0.0000 -89.1725 -0.8543 20.3419 14.7609 -23.8120 -3.1288 -0.0000 0.0000 -8.5147 17.9749 15.7759 5.0408 -7.1250 0.0000 -0.0000 -9.1838 46.3149 -0.3005 -0.0000 0.0000 0.0000 88.7236 0.2411 17.6093 -14.3797 23.2750 -2.9765 0.0000 -0.0000 -1.3708 -20.0712 3.8631 -1.4101 7.1250 -0.0000 -0.0000 4.9602 -25.8638 2.3077
49.8859 16.6742 -7.2067 -20.3147 -85.9101 18.3295 0.0000 0.0000 0.0000 -18.7644 1.4125 -4.4304 1.6006 7.9792 22.6509 0.8509 4.8451 -19.8349 0.0018 -0.2709 -0.7444 0.0000 0.0000 0.0000 21.7576 2.2590 -8.0841 -3.1505 -10.9348 32.0604 -1.9808 -1.1798 -27.0650 -0.9449 -6.1908 17.3391 -0.4487 0.3382 -0.2217 0.8357 0.3706 4.2678 1.1269 0.1234 4.5125 -3.9095 -3.9505 -11.1836 7.5665 -5.4553 6.6549 2.5778 -2.4029 4.1327 0.0000 -0.0000 0.0000 -89.1792 -0.9126 20.2968 14.7424 -23.7860 -3.1213 -0.0000 0.0000 -8.4819 17.9394 15.7321 5.0167 -7.1250 0.0000 -0.0000 -9.2053 46.2653 -0.2899 0.0000 -0.0000 0.0000 88.6956 0.2563 17.6194 -14.3805 23.2760 -2.9768 0.0000 -0.0000 -1.3584 -20.1000 3.8222 -1.3974 7.1250 -0.0000 -0.0000 4.9394 -25.9063 2.2930
49.8849 16.6743 -7.2063 -20.1953 -85.9152 18.2114 0.0000 0.0000 0.0000 -18.7781 1.4115 -4.4190 1.5981 7.9733 22.6331 0.8490 4.8620 -19.8267 0.0019 -0.2806 -0.7709 0.0000 0.0000 0.0000 21.7400 2.2427 -8.0888 -3.1522 -10.9375 32.0694 -1.9859 -1.1381 -27.0838 -0.9425 -6.1832 17.3170 -0.4558 0.3441 -0.2327 0.8292 0.3794 4.2596 1.1246 0.1279 4.5099 -3.8878 -3.9515 -11.1462 7.5614 -5.4595 6.6396 2.5730 -2.4058 4.1214 0.0000 0.0000 0.0000 -89.1618 -0.8936 20.3204 14.7518 -23.7993 -3.1251 -0.0000 0.0000 -8.4732 17.9685 15.8018 5.0469 -7.1250 0.0000 -0.0000 -9.1965 46.3406 -0.3068 0.0000 0.0000 0.0000 88.6838 0.2525 17.6022 -14.3652 23.2543 -2.9708 0.0000 -0.0000 -1.3489 -20.0960 3.8509 -1.4076 7.1250 -0.0000 -0.0000 4.9417 -25.8762 2.2976
49.8834 16.6742 -7.2061 -19.9422 -85.9197 17.9559 0.0000 0.0000 0.0000 -18.8007 1.4242 -4.4085 1.5956 7.9673 22.6149 0.8451 4.8912 -19.8075 0.0025 -0.3260 -0.8956 0.0000 0.0000 0.0000 21.7131 2.2175 -8.0927 -3.1542 -10.9406 32.0799 -1.9871 -1.1112 -27.0820 -0.9379 -6.1686 17.2743 -0.4739 0.3460 -0.2435 0.8224 0.3829 4.2579 1.1279 0.1291 4.5142 -3.8787 -3.9534 -11.1357 7.5598 -5.4638 6.6435 2.5709 -2.4080 4.1208 0.0000 0.0000 0.0000 -89.1528 -0.9018 20.3176 14.7487 -23.7948 -3.1238 -0.0000 0.0000 -8.4555 17.9734 15.8089 5.0505 -7.1250 0.0000 -0.0000 -9.1939 46.3484 -0.3085 0.0000 0.0000 0.0000 88.6681 0.2542 17.5944 -14.3542 23.2387 -2.9664 0.0000 -0.0000 -1.3391 -20.1078 3.8604 -1.4119 7.1250 -0.0000 -0.0000 4.9326 -25.8657 2.2945
49.8819 16.6741 -7.2059 -19.6712 -85.9218 17.6817 0.0000 0.0000 0.0000 -18.8231 1.4373 -4.3990 1.5933 7.9619 22.5985 0.8408 4.9204 -19.7837 0.0034 -0.3772 -1.0365 0.0000 0.0000 0.0000 21.6859 2.1892 -8.0948 -3.1557 -10.9429 32.0874 -1.9876 -1.0910 -27.0780 -0.9329 -6.1527 17.2280 -0.4930 0.3472 -0.2522 0.8156 0.3854 4.2564 1.1317 0.1299 4.5174 -3.8687 -3.9561 -11.1295 7.5567 -5.4692 6.6491 2.5680 -2.4106 4.1214 -0.0000 0.0000 0.0000 -89.1425 -0.9101 20.3179 14.7456 -23.7905 -3.1226 -0.0000 0.0000 -8.4426 17.9792 15.8179 5.0551 -7.1250 0.0000 -0.0000 -9.1909 46.3584 -0.3107 -0.0000 0.0000 0.0000 88.6532 0.2565 17.5855 -14.3424 23.2221 -2.9618 0.0000 -0.0000 -1.3276 -20.1211 3.8700 -1.4164 7.1250 -0.0000 -0.0000 4.9223 -25.8553 2.2909
49.8803 16.6739 -7.2057 -19.4043 -85.9227 17.4097 0.0000 0.0000 0.0000 -18.8444 1.4509 -4.3861 1.5909 7.9561 22.5809 0.8365 4.9472 -19.7596 0.0044 -0.4261 -1.1708 0.0000 0.0000 0.0000 21.6600 2.1612 -8.0948 -3.1573 -10.9454 32.0959 -1.9890 -1.0710 -27.0800 -0.9276 -6.1356 17.1783 -0.5126 0.3477 -0.2583 0.8096 0.3869 4.2551 1.1366 0.1301 4.5195 -3.8597 -3.9577 -11.1267 7.5541 -5.4730 6.6543 2.5655 -2.4123 4.1225 -0.0000 -0.0000 0.0000 -89.1317 -0.9153 20.3224 14.7443 -23.7886 -3.1221 -0.0000 0.0000 -8.4367 17.9827 15.8212 5.0572 -7.1250 0.0000 -0.0000 -9.1884 46.3623 -0.3115 -0.0000 -0.0000 0.0000 88.6376 0.2580 17.5776 -14.3309 23.2058 -2.9573 0.0000 -0.0000 -1.3184 -20.1304 3.8813 -1.4213 7.1250 -0.0000 -0.0000 4.9150 -25.8430 2.2889
49.8787 16.6737 -7.2056 -19.1080 -85.9221 17.1078 0.0000 0.0000 0.0000 -18.8668 1.4663 -4.3709 1.5883 7.9499 22.5620 0.8329 4.9659 -19.7361 0.0052 -0.4676 -1.2849 0.0000 0.0000 0.0000 21.6330 2.1324 -8.0944 -3.1590 -10.9481 32.1050 -1.9901 -1.0532 -27.0812 -0.9232 -6.1213 17.1369 -0.5360 0.3465 -0.2627 0.8049 0.3863 4.2537 1.1449 0.1290 4.5203 -3.8567 -3.9597 -11.1250 7.5537 -5.4765 6.6610 2.5646 -2.4139 4.1244 0.0000 -0.0000 0.0000 -89.1222 -0.9194 20.3275 14.7430 -23.7869 -3.1215 -0.0000 0.0000 -8.4346 17.9788 15.8149 5.0540 -7.1250 0.0000 -0.0000 -9.1905 46.3554 -0.3100 0.0000 -0.0000 0.0000 88.6195 0.2576 17.5724 -14.3213 23.1922 -2.9535 0.0000 -0.0000 -1.3103 -20.1371 3.8903 -1.4251 7.1250 -0.0000 -0.0000 4.9096 -25.8333 2.2875
49.8770 16.6734 -7.2056 -18.8136 -85.9209 16.8085 0.0000 0.0000 0.0000 -18.8884 1.4812 -4.3539 1.5855 7.9434 22.5423 0.8303 4.9773 -19.7177 0.0059 -0.4973 -1.3666 0.0000 0.0000 0.0000 21.6068 2.1051 -8.0943 -3.1608 -10.9509 32.1143 -1.9913 -1.0357 -27.0830 -0.9200 -6.1110 17.1068 -0.5605 0.3443 -0.2658 0.8010 0.3843 4.2516 1.1546 0.1272 4.5199 -3.8568 -3.9610 -11.1278 7.5549 -5.4789 6.6701 2.5647 -2.4148 4.1278 0.0000 -0.0000 0.0000 -89.1128 -0.9212 20.3341 14.7437 -23.7879 -3.1218 -0.0000 0.0000 -8.4370 17.9706 15.8060 5.0488 -7.1250 0.0000 -0.0000 -9.1958 46.3452 -0.3079 0.0000 -0.0000 0.0000 88.6001 0.2543 17.5718 -14.3148 23.1829 -2.9509 0.0000 -0.0000 -1.3082 -20.1376 3.8971 -1.4276 7.1250 -0.0000 -0.0000 4.9091 -25.8260 2.2881
49.8753 16.6731 -7.2055 -18.5030 -85.9201 16.4931 0.0000 0.0000 0.0000 -18.9114 1.4951 -4.3332 1.5827 7.9367 22.5219 0.8293 4.9751 -19.7062 0.0061 -0.5061 -1.3905 0.0000 0.0000 0.0000 21.5790 2.0776 -8.0942 -3.1627 -10.9538 32.1244 -1.9921 -1.0189 -27.0817 -0.9181 -6.1050 17.0894 -0.5864 0.3414 -0.2706 0.7973 0.3814 4.2498 1.1651 0.1250 4.5207 -3.8611 -3.9621 -11.1303 7.5589 -5.4806 6.6798 2.5664 -2.4154 4.1315 0.0000 0.0000 0.0000 -89.1022 -0.9206 20.3456 14.7462 -23.7914 -3.1228 -0.0000 0.0000 -8.4449 17.9645 15.8020 5.0458 -7.1250 0.0000 -0.0000 -9.2003 46.3404 -0.3069 0.0000 0.0000 0.0000 88.5798 0.2493 17.5750 -14.3109 23.1775 -2.9494 0.0000 -0.0000 -1.3090 -20.1327 3.8960 -1.4268 7.1250 -0.0000 -0.0000 4.9128 -25.8274 2.2897
49.8736 16.6728 -7.2054 -18.2199 -85.9193 16.2070 0.0000 0.0000 0.0000 -18.9321 1.5093 -4.3149 1.5800 7.9301 22.5020 0.8284 4.9719 -19.6960 0.0063 -0.5133 -1.4105 0.0000 0.0000 0.0000 21.5532 2.0513 -8.0953 -3.1645 -10.9567 32.1339 -1.9927 -0.9999 -27.0792 -0.9168 -6.1006 17.0766 -0.6110 0.3386 -0.2766 0.7939 0.3787 4.2470 1.1753 0.1228 4.5211 -3.8659 -3.9627 -11.1307 7.5637 -5.4819 6.6882 2.5685 -2.4157 4.1345 0.0000 0.0000 0.0000 -89.0917 -0.9186 20.3544 14.7487 -23.7948 -3.1238 -0.0000 0.0000 -8.4508 17.9591 15.7917 5.0409 -7.1250 0.0000 -0.0000 -9.2027 46.3290 -0.3044 0.0000 0.0000 0.0000 88.5602 0.2416 17.5831 -14.3095 23.1755 -2.9488 0.0000 -0.0000 -1.3138 -20.1294 3.8913 -1.4249 7.1250 -0.0000 -0.0000 4.9154 -25.8323 2.2903
49.8719 16.6725 -7.2053 -17.9712 -85.9187 15.9577 0.0000 0.0000 0.0000 -18.9506 1.5213 -4.2995 1.5775 7.9241 22.4838 0.8280 4.9664 -19.6882 0.0064 -0.5180 -1.4235 0.0000 0.0000 0.0000 21.5299 2.0271 -8.0984 -3.1661 -10.9593 32.1426 -1.9932 -0.9807 -27.0755 -0.9160 -6.0982 17.0697 -0.6304 0.3367 -0.2846 0.7891 0.3771 4.2434 1.1812 0.1214 4.5219 -3.8664 -3.9640 -11.1309 7.5670 -5.4842 6.6945 2.5694 -2.4166 4.1367 -0.0000 -0.0000 0.0000 -89.0779 -0.9167 20.3661 14.7515 -23.7988 -3.1250 -0.0000 0.0000 -8.4561 17.9617 15.7855 5.0398 -7.1250 0.0000 -0.0000 -9.1986 46.3230 -0.3029 -0.0000 -0.0000 0.0000 88.5443 0.2351 17.5908 -14.3080 23.1734 -2.9482 0.0000 -0.0000 -1.3191 -20.1259 3.8827 -1.4215 7.1250 -0.0000 -0.0000 4.9183 -25.8416 2.2906
49.8702 16.6723 -7.2053 -17.7941 -85.9185 15.7814 0.0000 0.0000 0.0000 -18.9637 1.5311 -4.2869 1.5755 7.9193 22.4693 0.8281 4.9598 -19.6844 0.0064 -0.5179 -1.4232 0.0000 0.0000 0.0000 21.5121 2.0068 -8.1015 -3.1674 -10.9613 32.1493 -1.9934 -0.9620 -27.0705 -0.9155 -6.0967 17.0652 -0.6447 0.3359 -0.2935 0.7849 0.3769 4.2385 1.1850 0.1210 4.5218 -3.8667 -3.9656 -11.1241 7.5715 -5.4871 6.6958 2.5707 -2.4179 4.1363 -0.0000 0.0000 0.0000 -89.0634 -0.9128 20.3774 14.7539 -23.8022 -3.1260 -0.0000 0.0000 -8.4595 17.9681 15.7795 5.0399 -7.1250 0.0000 -0.0000 -9.1911 46.3177 -0.3014 -0.0000 0.0000 0.0000 88.5304 0.2282 17.5957 -14.3059 23.1704 -2.9474 0.0000 -0.0000 -1.3207 -20.1252 3.8781 -1.4197 7.1250 -0.0000 -0.0000 4.9190 -25.8465 2.2904
